<?xml version="1.0" encoding="UTF-8" standalone="no"?>
<!-- Created with Inkscape (http://www.inkscape.org/) -->

<svg
     xmlns:dc="http://purl.org/dc/elements/1.1/"
     xmlns:cc="http://creativecommons.org/ns#"
     xmlns:rdf="http://www.w3.org/1999/02/22-rdf-syntax-ns#"
     xmlns:svg="http://www.w3.org/2000/svg"
     xmlns="http://www.w3.org/2000/svg"
     xmlns:xlink="http://www.w3.org/1999/xlink"
     xmlns:sodipodi="http://sodipodi.sourceforge.net/DTD/sodipodi-0.dtd"
     xmlns:inkscape="http://www.inkscape.org/namespaces/inkscape"
     width="425"
     height="275"
     id="svg4962"
     inkscape:version="0.91 r13725"
     sodipodi:docname="ds18b20-uart-mosfet.svg"
     version="1.1">
    <defs
         id="defs4964" />
    <sodipodi:namedview
         id="base"
         pagecolor="#ffffff"
         bordercolor="#666666"
         borderopacity="1.0"
         inkscape:pageopacity="0.0"
         inkscape:pageshadow="2"
         inkscape:zoom="2.711"
         inkscape:cx="212.5"
         inkscape:cy="137.5"
         inkscape:document-units="px"
         inkscape:current-layer="layer1"
         showgrid="true"
         inkscape:window-width="1267"
         inkscape:window-height="955"
         inkscape:window-x="1"
         inkscape:window-y="1"
         inkscape:window-maximized="1"
         fit-margin-top="10"
         fit-margin-left="10"
         fit-margin-right="10"
         fit-margin-bottom="10"
         inkscape:snap-bbox="true"
         inkscape:snap-bbox-midpoints="true"
         inkscape:object-nodes="true">
        <inkscape:grid
             type="xygrid"
             id="grid4970"
             units="px"
             empspacing="5"
             visible="true"
             enabled="true"
             snapvisiblegridlinesonly="true"
             spacingx="5px"
             spacingy="5px" />
    </sodipodi:namedview>
    <metadata
         id="metadata4967">
        <rdf:RDF>
            <cc:Work
                 rdf:about="">
                <dc:format>image/svg+xml</dc:format>
                <dc:type
                     rdf:resource="http://purl.org/dc/dcmitype/StillImage" />
                <dc:title />
            </cc:Work>
        </rdf:RDF>
    </metadata>
    <g
         inkscape:label="Vrstva 1"
         inkscape:groupmode="layer"
         id="layer1"
         style="stroke-linecap:square"
         transform="translate(0,75)">
        <path
             style="stroke:black;stroke-width:1.7716;stroke-linejoin:round"
             d="M 175,-44.98 175,150"
             id="path4246"
             inkscape:connector-curvature="0" />
        <path
             style="stroke:black;stroke-width:1.7716;stroke-linejoin:round"
             d="M 250,-44.98 250,150"
             id="path4252"
             inkscape:connector-curvature="0" />
        <rect
             ry="5"
             rx="5"
             y="50"
             x="325"
             height="125"
             width="75"
             id="use5120"
             style="fill:#8ae234;stroke:black;stroke-linejoin:round" />
        <rect
             style="fill:#729fcf;stroke:black;stroke-linejoin:round"
             id="rect4314"
             width="75"
             height="125"
             x="25"
             y="50"
             rx="5"
             ry="5" />
        <g
             id="g7084"
             transform="matrix(0,-1,1,0,45.3,835.8)">
            <path
                 style="fill:white;stroke:black;stroke-width:1.7717;stroke-linecap:round;stroke-linejoin:round;stroke-miterlimit:7"
                 d="m 764.6,34.7 c 0,2.1 -1.7,3.7 -3.8,3.7 -2.2,0 -3.7,-1.6 -3.7,-3.7 0,-2.1 1.6,-3.8 3.7,-3.8 2.1,0 3.8,1.7 3.8,3.8 z"
                 id="path3800"
                 inkscape:connector-curvature="0" />
            <path
                 style="fill:none;stroke:black;stroke-width:1.7717;stroke-miterlimit:7"
                 d="m 760.8,39.7 0,15"
                 id="path1117"
                 inkscape:connector-curvature="0" />
        </g>
        <path
             d="m 178.8,-49.9 c 0,2.1 -1.8,3.7 -3.8,3.7 -2.3,0 -3.8,-1.6 -3.8,-3.7 0,-2.1 1.6,-3.9 3.8,-3.9 2,0 3.8,1.8 3.8,3.9 z"
             id="path3818"
             inkscape:connector-curvature="0"
             style="stroke:black" />
        <use
             x="0"
             y="0"
             xlink:href="#g7084"
             id="use4250"
             transform="translate(0,25)"
             width="100%"
             height="100%" />
        <use
             height="100%"
             width="100%"
             transform="translate(0,50)"
             id="use4254"
             xlink:href="#g7084"
             y="0"
             x="0" />
        <use
             x="0"
             y="0"
             xlink:href="#g7084"
             id="use4256"
             transform="translate(0,75)"
             width="100%"
             height="100%" />
        <text
             xml:space="preserve"
             style="font-size:14px;line-height:125%;font-family:monospace;-inkscape-font-specification:monospace;text-anchor:end;stroke-linejoin:round"
             x="71.483093"
             y="79.953903"
             id="text4258"
             sodipodi:linespacing="125%"><tspan
                 sodipodi:role="line"
                 id="tspan4260"
                 x="71.483093"
                 y="79.953903">Vcc</tspan></text>
        <text
             sodipodi:linespacing="125%"
             id="text4262"
             y="104.9539"
             x="71.483093"
             style="font-size:14px;line-height:125%;font-family:monospace;-inkscape-font-specification:monospace;text-anchor:end;stroke-linejoin:round"
             xml:space="preserve"><tspan
                 y="104.9539"
                 x="71.483093"
                 id="tspan4264"
                 sodipodi:role="line">Tx</tspan></text>
        <text
             xml:space="preserve"
             style="font-size:14px;line-height:125%;font-family:monospace;-inkscape-font-specification:monospace;text-anchor:end;stroke-linejoin:round"
             x="71.483093"
             y="129.9539"
             id="text4266"
             sodipodi:linespacing="125%"><tspan
                 sodipodi:role="line"
                 id="tspan4268"
                 x="71.483093"
                 y="129.9539">Rx</tspan></text>
        <text
             sodipodi:linespacing="125%"
             id="text4270"
             y="154.9539"
             x="71.483093"
             style="font-size:14px;line-height:125%;font-family:monospace;-inkscape-font-specification:monospace;text-anchor:end;stroke-linejoin:round"
             xml:space="preserve"><tspan
                 y="154.9539"
                 x="71.483093"
                 id="tspan4272"
                 sodipodi:role="line">GND</tspan></text>
        <path
             style="color:black;fill:none;fill-rule:evenodd;stroke:black;stroke-width:1.7717;stroke-linecap:butt"
             d="m 100,75 25,0 0,-125 175,0 0,150 25,0"
             id="path4276"
             inkscape:connector-curvature="0"
             sodipodi:nodetypes="cccccc" />
        <path
             style="color:black;fill:none;fill-rule:evenodd;stroke:black;stroke-width:1.7716;stroke-linecap:butt"
             d="m 100,150 225,0"
             id="path4278"
             inkscape:connector-curvature="0" />
        <g
             transform="matrix(0,-1,-1,0,379.7,860.8)"
             id="g4280">
            <path
                 inkscape:connector-curvature="0"
                 id="path4282"
                 d="m 764.6,34.7 c 0,2.1 -1.7,3.7 -3.8,3.7 -2.2,0 -3.7,-1.6 -3.7,-3.7 0,-2.1 1.6,-3.8 3.7,-3.8 2.1,0 3.8,1.7 3.8,3.8 z"
                 style="fill:white;stroke:black;stroke-width:1.7717;stroke-linecap:round;stroke-linejoin:round;stroke-miterlimit:7" />
            <path
                 inkscape:connector-curvature="0"
                 id="path4284"
                 d="m 760.8,39.7 0,15"
                 style="fill:none;stroke:black;stroke-width:1.7717;stroke-miterlimit:7" />
        </g>
        <use
             x="0"
             y="0"
             xlink:href="#g4280"
             id="use4286"
             transform="translate(0,25)"
             width="100%"
             height="100%" />
        <use
             height="100%"
             width="100%"
             transform="translate(0,50)"
             id="use4288"
             xlink:href="#g4280"
             y="0"
             x="0" />
        <text
             xml:space="preserve"
             style="font-size:14px;line-height:125%;font-family:monospace;-inkscape-font-specification:monospace;stroke-linejoin:round"
             x="355"
             y="105"
             id="text4290"
             sodipodi:linespacing="125%"><tspan
                 sodipodi:role="line"
                 id="tspan4292"
                 x="355"
                 y="105">Vcc</tspan></text>
        <text
             xml:space="preserve"
             style="font-size:14px;line-height:125%;font-family:monospace;-inkscape-font-specification:monospace;stroke-linejoin:round"
             x="355"
             y="130"
             id="text4294"
             sodipodi:linespacing="125%"><tspan
                 sodipodi:role="line"
                 id="tspan4296"
                 x="355"
                 y="130">Data</tspan></text>
        <text
             xml:space="preserve"
             style="font-size:14px;line-height:125%;font-family:monospace;-inkscape-font-specification:monospace;stroke-linejoin:round"
             x="355"
             y="155"
             id="text4298"
             sodipodi:linespacing="125%"><tspan
                 sodipodi:role="line"
                 id="tspan4300"
                 x="355"
                 y="155">GND</tspan></text>
        <text
             xml:space="preserve"
             style="font-size:18px;line-height:125%;font-family:monospace;-inkscape-font-specification:monospace;text-anchor:middle;stroke-linejoin:round"
             x="363.55713"
             y="35"
             id="text4302"
             sodipodi:linespacing="125%"><tspan
                 sodipodi:role="line"
                 id="tspan4304"
                 x="363.55713"
                 y="35">DS18B20</tspan></text>
        <text
             sodipodi:linespacing="125%"
             id="text4310"
             y="35"
             x="63.557129"
             style="font-size:18px;line-height:125%;font-family:monospace;-inkscape-font-specification:monospace;text-anchor:middle;stroke-linejoin:round"
             xml:space="preserve"><tspan
                 y="35"
                 x="63.557129"
                 id="tspan4312"
                 sodipodi:role="line">USB/UART</tspan></text>
        <path
             style="fill:#babdb6;stroke:black;stroke-width:1.7716;stroke-linejoin:round"
             d="m 100,125 225,0"
             id="path4316"
             inkscape:connector-curvature="0"
             sodipodi:nodetypes="cc" />
        <g
             transform="translate(-635.9,-500)"
             id="g4303">
            <path
                 style="fill:none;stroke:black;stroke-width:1.7719;stroke-miterlimit:10"
                 d="m 810.9,460 0,12.4"
                 id="path9"
                 inkscape:connector-curvature="0" />
            <path
                 style="fill:none;stroke:black;stroke-width:1.7717;stroke-miterlimit:10"
                 d="m 810.9,522.4 0,12.5"
                 id="path11"
                 inkscape:connector-curvature="0" />
            <path
                 style="fill:white;stroke:black;stroke-width:1.7718;stroke-linecap:round;stroke-linejoin:round;stroke-miterlimit:10"
                 d="m 804.3,472.5 c 12.6,-0.2 13.3,0 13.3,0 l 0,49.9 -13.3,0 z"
                 id="path13"
                 inkscape:connector-curvature="0" />
        </g>
        <use
             x="0"
             y="0"
             xlink:href="#g4303"
             id="use3428"
             transform="translate(75,0)"
             width="100%"
             height="100%" />
        <text
             xml:space="preserve"
             style="font-size:14px;line-height:125%;font-family:monospace;-inkscape-font-specification:monospace;stroke-width:1.7717;stroke-linejoin:round"
             x="185"
             y="2.6691883"
             id="text4232"
             sodipodi:linespacing="125%"><tspan
                 sodipodi:role="line"
                 id="tspan4234"
                 x="185"
                 y="2.6691883">100k</tspan></text>
        <text
             sodipodi:linespacing="125%"
             id="text4236"
             y="2.7683094"
             x="260"
             style="font-size:14px;line-height:125%;font-family:monospace;-inkscape-font-specification:monospace;stroke-width:1.7717;stroke-linejoin:round"
             xml:space="preserve"><tspan
                 y="2.7683094"
                 x="260"
                 id="tspan4238"
                 sodipodi:role="line">4k7</tspan></text>
        <text
             xml:space="preserve"
             style="font-size:14px;line-height:125%;font-family:monospace;-inkscape-font-specification:monospace;text-anchor:middle;stroke-width:1.7717;stroke-linejoin:round"
             x="212.7168"
             y="45"
             id="text4240"
             sodipodi:linespacing="125%"><tspan
                 sodipodi:role="line"
                 id="tspan4242"
                 x="212.7168"
                 y="45">2x2N7002</tspan></text>
        <path
             style="color:black;fill:none;fill-rule:evenodd;stroke:black;stroke-width:1.7717;stroke-linecap:butt"
             d="m 175,50 25,0 0,50 25,0"
             id="path4248"
             inkscape:connector-curvature="0"
             sodipodi:nodetypes="cccc" />
        <path
             style="stroke:black"
             inkscape:connector-curvature="0"
             id="path4250"
             d="m 178.8,50.1 c 0,2.1 -1.8,3.7 -3.8,3.7 -2.3,0 -3.8,-1.6 -3.8,-3.7 0,-2.1 1.6,-3.9 3.8,-3.9 2,0 3.8,1.8 3.8,3.9 z" />
        <g
             transform="translate(-395.9,-295)"
             id="g7869">
            <path
                 inkscape:connector-curvature="0"
                 id="path4110-4"
                 d="m 584.8,385.1 c 0,12.9 -10.4,23.2 -23.3,23.2 -12.8,0 -23.2,-10.3 -23.2,-23.2 0,-12.9 10.4,-23.3 23.2,-23.3 12.9,0 23.3,10.4 23.3,23.3 z"
                 style="fill:white;stroke:black;stroke-width:1.7717" />
            <path
                 inkscape:connector-curvature="0"
                 id="path4112-5"
                 d="m 555.9,372.5 15,0 0,-12.5"
                 style="fill:none;stroke:black;stroke-width:1.7717;stroke-linejoin:round;stroke-miterlimit:10"
                 sodipodi:nodetypes="ccc" />
            <path
                 sodipodi:nodetypes="cc"
                 inkscape:connector-curvature="0"
                 id="path4114-5"
                 d="m 565.9,397.5 -10,0"
                 style="fill:none;stroke:black;stroke-width:1.7717;stroke-linecap:round;stroke-linejoin:round;stroke-miterlimit:10" />
            <path
                 inkscape:connector-curvature="0"
                 id="path4116-7"
                 d="m 555.9,381.3 0,7.5"
                 style="fill:none;stroke:black;stroke-width:1.7717;stroke-linecap:round;stroke-linejoin:round;stroke-miterlimit:10"
                 sodipodi:nodetypes="cc" />
            <path
                 inkscape:connector-curvature="0"
                 id="path4118-6"
                 d="m 555.9,393.8 0,7.5"
                 style="fill:none;stroke:black;stroke-width:1.7717;stroke-linecap:round;stroke-linejoin:round;stroke-miterlimit:10"
                 sodipodi:nodetypes="cc" />
            <path
                 inkscape:connector-curvature="0"
                 id="path4120-4"
                 d="m 555.9,376.1 0,-7.5"
                 style="fill:none;stroke:black;stroke-width:1.7717;stroke-linecap:round;stroke-linejoin:round;stroke-miterlimit:10"
                 sodipodi:nodetypes="cc" />
            <path
                 inkscape:connector-curvature="0"
                 id="path4122-2"
                 d="m 530.9,395 20,0"
                 style="fill:none;stroke:black;stroke-width:1.772;stroke-miterlimit:10"
                 sodipodi:nodetypes="cc" />
            <path
                 inkscape:connector-curvature="0"
                 id="path4124-8"
                 d="m 550.9,372.5 0,22.5"
                 style="fill:none;stroke:black;stroke-width:1.7717;stroke-linecap:round;stroke-miterlimit:10"
                 sodipodi:nodetypes="cc" />
            <path
                 inkscape:connector-curvature="0"
                 id="path4126-3"
                 d="m 555.9,385 10,0 0,12.5 5,5 0,7.5"
                 style="fill:none;stroke:black;stroke-width:1.772;stroke-linejoin:round;stroke-miterlimit:10"
                 sodipodi:nodetypes="ccccc" />
            <path
                 sodipodi:nodetypes="cccc"
                 inkscape:connector-curvature="0"
                 id="path4128-7"
                 d="m 560.6,387.5 -5,-2.5 5,-2.5 z"
                 style="stroke:black;stroke-width:1.2496;stroke-linecap:round;stroke-linejoin:round;stroke-miterlimit:10" />
            <path
                 d="m 568.4,397.5 c 0,1.3 -1.2,2.5 -2.5,2.5 -1.4,0 -2.5,-1.2 -2.5,-2.5 0,-1.4 1.1,-2.5 2.5,-2.5 1.3,0 2.5,1.1 2.5,2.5 z"
                 id="path4130-9"
                 inkscape:connector-curvature="0" />
            <path
                 inkscape:connector-curvature="0"
                 id="path4150-3"
                 d="m 571.5,381.5 c 0,2 0,2 0,2"
                 style="fill:none;stroke:black;stroke-width:0.8859;stroke-linecap:round;stroke-miterlimit:8.8" />
            <path
                 inkscape:connector-curvature="0"
                 id="path4152-7"
                 d="m 571.5,381.5 c 10.2,0 8.8,0 8.8,0"
                 style="fill:none;stroke:black;stroke-width:0.8859;stroke-linecap:round;stroke-miterlimit:8.8"
                 sodipodi:nodetypes="cc" />
            <path
                 inkscape:connector-curvature="0"
                 id="path4154-4"
                 d="m 580.3,379.7 c 0,1.8 0,1.8 0,1.8"
                 style="fill:none;stroke:black;stroke-width:0.8859;stroke-linecap:round;stroke-miterlimit:8.8" />
            <path
                 inkscape:connector-curvature="0"
                 id="path4156-0"
                 d="m 571.5,388.5 8.8,0 -4.4,-7 z"
                 style="fill:none;stroke:black;stroke-width:0.8859;stroke-linejoin:round;stroke-miterlimit:8.8"
                 sodipodi:nodetypes="cccc" />
            <path
                 style="fill:none;stroke:black;stroke-width:0.8858;stroke-miterlimit:8.8"
                 d="m 570.9,372.5 5,0 0,25 -8.8,0"
                 id="path4158-6"
                 inkscape:connector-curvature="0"
                 sodipodi:nodetypes="cccc" />
        </g>
        <use
             x="0"
             y="0"
             xlink:href="#g7869"
             id="use3414"
             transform="translate(75,0)"
             width="100%"
             height="100%" />
        <path
             style="stroke:black;stroke-width:1.7717;stroke-linejoin:round"
             d="m 100,100 35,0"
             id="path4260"
             inkscape:connector-curvature="0"
             sodipodi:nodetypes="cc" />
        <path
             inkscape:connector-curvature="0"
             id="path4262"
             d="m 250,50 25,0 0,75"
             style="color:black;fill:none;fill-rule:evenodd;stroke:black;stroke-width:1.7717;stroke-linecap:butt"
             sodipodi:nodetypes="ccc" />
        <path
             d="m 253.8,50.1 c 0,2.1 -1.8,3.7 -3.8,3.7 -2.3,0 -3.8,-1.6 -3.8,-3.7 0,-2.1 1.6,-3.9 3.8,-3.9 2,0 3.8,1.8 3.8,3.9 z"
             id="path4264"
             inkscape:connector-curvature="0"
             style="stroke:black" />
        <path
             style="stroke:black"
             inkscape:connector-curvature="0"
             id="path4266"
             d="m 278.8,125.1 c 0,2.1 -1.8,3.7 -3.8,3.7 -2.3,0 -3.8,-1.6 -3.8,-3.7 0,-2.1 1.6,-3.9 3.8,-3.9 2,0 3.8,1.8 3.8,3.9 z" />
        <path
             d="m 253.8,150.1 c 0,2.1 -1.8,3.7 -3.8,3.7 -2.3,0 -3.8,-1.6 -3.8,-3.7 0,-2.1 1.6,-3.9 3.8,-3.9 2,0 3.8,1.8 3.8,3.9 z"
             id="path4268"
             inkscape:connector-curvature="0"
             style="stroke:black" />
        <path
             style="stroke:black"
             inkscape:connector-curvature="0"
             id="path4270"
             d="m 178.8,150.1 c 0,2.1 -1.8,3.7 -3.8,3.7 -2.3,0 -3.8,-1.6 -3.8,-3.7 0,-2.1 1.6,-3.9 3.8,-3.9 2,0 3.8,1.8 3.8,3.9 z" />
        <path
             style="stroke:black"
             inkscape:connector-curvature="0"
             id="path4272"
             d="m 253.8,-49.9 c 0,2.1 -1.8,3.7 -3.8,3.7 -2.3,0 -3.8,-1.6 -3.8,-3.7 0,-2.1 1.6,-3.9 3.8,-3.9 2,0 3.8,1.8 3.8,3.9 z" />
    </g>
</svg>
